<svg width="29" height="24" viewBox="0 0 29 24" fill="none" xmlns="http://www.w3.org/2000/svg">
<path d="M12.1493 15.626C11.8917 15.6472 11.4589 15.5625 11.0646 15.7935C10.9174 15.8799 10.7072 15.9575 10.6318 15.7142C10.5652 15.5008 10.7668 15.4161 10.9245 15.3438C11.5623 15.0493 12.2527 15.2345 12.9098 15.1304C13.4109 15.0511 14.1469 15.3844 14.3677 14.8924C14.6077 14.358 13.9016 13.9842 13.5704 13.5768C12.4297 12.1783 11.515 10.6423 10.6897 9.04282C10.3953 8.47497 10.6143 8.39033 11.1435 8.31802C12.0039 8.19987 12.8555 7.99706 13.7036 7.80131C15.2999 7.4345 15.575 5.38707 15.3261 4.14028C14.7812 1.39273 11.7743 0.405169 9.71715 0.706729C9.17219 0.786086 8.98645 1.03827 9.01799 1.54792C9.08984 2.69067 9.24754 3.82108 9.26857 4.97265C9.30887 7.11178 9.49111 9.24739 9.61201 11.3848C9.66107 12.2506 9.8363 13.0319 10.8106 13.3264C10.9788 13.3775 11.1593 13.4657 11.0787 13.6967C11.0086 13.8995 10.8193 13.9136 10.6388 13.8925C8.96543 13.6861 7.30078 13.8854 5.63612 14.0212C5.49244 14.0335 5.30845 14.1006 5.25588 13.9048C5.20682 13.7267 5.37679 13.6403 5.50996 13.5856C6.72428 13.0989 6.93455 12.1149 6.87848 10.9509C6.79437 9.2033 6.71377 7.4539 6.71377 5.70627C6.71377 4.19494 6.6279 2.64658 7.62144 1.32572C7.84398 1.03121 7.58639 0.890134 7.34283 0.911296C5.5415 1.06296 3.68059 0.981836 2.14561 2.21453C1.29751 2.89524 1.02241 3.76465 1.03468 4.84215C1.06271 7.18409 2.3664 8.66014 4.19051 9.83993C4.42531 9.99159 4.8844 10.0974 4.77051 10.4219C4.63208 10.8169 4.18174 10.5859 3.90138 10.5312C2.09304 10.1803 0.346035 8.26335 0.109479 6.42402C-0.0517289 5.17898 -0.137591 3.97098 0.612379 2.8247C1.40791 1.60612 2.57492 1.0753 3.89612 0.68733C5.97957 0.0771566 8.12259 -0.0127821 10.2551 0.00132594C12.0126 0.0136705 13.7771 0.172385 15.4909 0.72789C18.0649 1.56203 18.6029 4.84921 17.2922 6.54041C16.4161 7.67082 15.1544 8.31978 13.6878 8.46968C12.8502 8.55433 12.7503 8.74832 13.2445 9.42903C13.9471 10.399 14.6778 11.3477 15.4103 12.2965C15.7257 12.7039 15.9114 12.6421 16.2198 12.1836C17.2834 10.5982 18.1228 8.92114 18.6537 7.08709C18.708 6.90016 18.7834 6.66209 19.0322 6.6903C19.3634 6.7291 19.3301 7.04124 19.3791 7.27579C19.9626 10.048 21.0263 12.658 22.0846 15.268C22.393 16.0298 22.8048 16.7493 23.1693 17.4865C23.5986 18.3541 24.0489 18.6222 25.0512 18.3894C25.8923 18.1937 26.7492 17.9679 27.4203 17.3472C27.5605 17.2184 27.7427 16.9821 27.9197 17.1479C28.158 17.3701 27.946 17.6364 27.7812 17.7986C27.1101 18.4529 26.3444 18.9573 25.4157 19.1777C24.3731 19.4263 24.3871 19.4193 25.0442 20.2517C26.0237 21.4914 27.019 22.7065 28.5119 23.3748C28.6661 23.4436 28.8431 23.56 28.7906 23.7699C28.7397 23.9744 28.5382 24.0062 28.363 23.9991C26.2165 23.9198 24.1874 23.5653 22.7978 21.666C21.5169 19.9148 19.7156 18.8109 17.8704 17.7722C17.3325 17.4689 16.9698 16.9839 16.4949 16.6241C15.6538 15.9857 14.9687 15.924 14.1872 16.871C13.0342 18.2713 11.8794 19.742 10.3357 20.7807C10.0904 20.9465 9.80126 21.047 9.53491 21.1828C8.97945 21.4667 8.48355 21.4015 8.21721 20.8125C7.95262 20.2252 8.39594 19.802 8.81999 19.608C10.2271 18.9678 11.4028 18.0173 12.5628 17.0333C12.8274 16.8075 13.0692 16.5536 13.3145 16.3049C13.4425 16.1762 13.7158 16.111 13.5879 15.8464C13.4863 15.6401 13.269 15.6278 13.0657 15.6278C12.8169 15.6278 12.5663 15.6278 12.1563 15.6278L12.1493 15.626ZM17.9107 11.2349C17.711 11.2648 17.6199 11.413 17.5287 11.5664C17.2256 12.0831 16.9575 12.6227 16.5335 13.0583C16.2548 13.344 16.4406 13.5257 16.6544 13.7408C17.534 14.6226 18.3996 15.5167 19.2687 16.409C19.3861 16.5289 19.4667 16.7405 19.684 16.5994C19.8698 16.4778 19.8155 16.3049 19.7401 16.1339C19.1023 14.6949 18.6274 13.2012 18.2542 11.6722C18.2069 11.4765 18.149 11.2807 17.9107 11.2349Z" fill="#145385"/>
</svg>
